<svg width="24" height="25" viewBox="0 0 24 25" fill="none" xmlns="http://www.w3.org/2000/svg">
<g id="Blog">
<g id="Group 73">
<g id="Group 74">
<path id="Vector 1" d="M12 21.0001L10.3334 19.2223H13.6667L12 21.0001Z" fill="#929EB0"/>
<rect id="Rectangle 91" x="2" y="5" width="20" height="14.2222" rx="5" fill="#929EB0"/>
</g>
<g id="Group">
<path id="Vector" d="M12.7839 10.5022C11.9326 10.5022 11.2419 11.2299 11.2419 12.1296C11.2419 13.0292 11.9326 13.7569 12.7839 13.7569C13.6351 13.7569 14.3258 13.0292 14.3258 12.1296C14.3258 11.2299 13.6405 10.5022 12.7839 10.5022ZM12.7839 12.9089C12.377 12.9089 12.045 12.5593 12.045 12.1296C12.045 11.6998 12.377 11.3503 12.7839 11.3503C13.1908 11.3503 13.5227 11.6998 13.5227 12.1296C13.5227 12.5593 13.1961 12.9089 12.7839 12.9089Z" fill="white"/>
<path id="Vector_2" d="M7.90664 10.5021C7.5747 10.5021 7.26417 10.6396 7.02325 10.8745V9.52795H6.16663V13.6823H7.02325V13.3901C7.26417 13.6193 7.56935 13.7625 7.90664 13.7625C8.67225 13.7625 9.2933 13.0348 9.2933 12.1352C9.2933 11.2355 8.6776 10.5021 7.90664 10.5021ZM7.73532 12.9431C7.41944 12.9431 7.14639 12.7426 7.0286 12.4503C6.99113 12.3529 6.96436 12.2441 6.96436 12.1294C6.96436 12.0148 6.98577 11.906 7.0286 11.8086C7.14639 11.5163 7.41944 11.3158 7.73532 11.3158C8.16363 11.3158 8.50628 11.6768 8.50628 12.1294C8.50628 12.5821 8.16363 12.9431 7.73532 12.9431Z" fill="white"/>
<path id="Vector_3" d="M16.9975 10.5708V10.8286C16.7566 10.6281 16.4568 10.5078 16.1356 10.5078C15.3485 10.5078 14.7114 11.2126 14.7114 12.0778C14.7114 12.9431 15.3485 13.6479 16.1356 13.6479C16.4621 13.6479 16.762 13.5275 16.9975 13.327V13.7625C16.9975 13.7625 16.9119 14.1922 16.3122 14.1922V15.0002C16.3122 15.0002 16.9601 15.0804 17.5383 14.4616C17.5383 14.4616 17.806 14.1579 17.8649 13.7567V10.5708H16.9975ZM16.2962 12.8743C15.8625 12.8743 15.5145 12.5133 15.5145 12.0721C15.5145 11.6309 15.8679 11.2699 16.2962 11.2699C16.6013 11.2699 16.869 11.4532 16.9975 11.7168C17.0511 11.8257 17.0778 11.946 17.0778 12.0721C17.0778 12.1981 17.0457 12.3242 16.9975 12.4274C16.869 12.6967 16.6013 12.8743 16.2962 12.8743Z" fill="white"/>
<path id="Vector_4" d="M9.38977 9.44771V10.2786C9.38977 10.2786 9.78596 10.3359 9.86091 10.7485V13.6823H10.7443V10.7485V10.7255C10.6908 10.313 10.4605 10.0035 10.4605 10.0035C9.95728 9.36749 9.38977 9.44771 9.38977 9.44771Z" fill="white"/>
</g>
</g>
</g>
</svg>
