<svg width="24" height="25" viewBox="0 0 24 25" fill="none" xmlns="http://www.w3.org/2000/svg">
<g id="Checkbox">
<path id="Vector" d="M4.3176 19.9324C5.637 21.25 7.7574 21.25 12 21.25C16.2426 21.25 18.3639 21.25 19.6815 19.9315C21 18.6148 21 16.4926 21 12.25C21 8.0074 21 5.8861 19.6815 4.5676C18.3648 3.25 16.2426 3.25 12 3.25C7.7574 3.25 5.6361 3.25 4.3176 4.5676C3 5.887 3 8.0074 3 12.25C3 16.4926 3 18.6148 4.3176 19.9324Z" fill="#B1B9C3"/>
<path id="Vector_2" d="M15.7777 8.54306L10.8277 13.4931L8.7077 11.3721C8.61486 11.2791 8.50462 11.2054 8.38329 11.1551C8.26196 11.1048 8.1319 11.0789 8.00056 11.0789C7.73529 11.0788 7.48084 11.184 7.2932 11.3716C7.10556 11.5591 7.00009 11.8134 7 12.0787C6.99991 12.344 7.10519 12.5984 7.2927 12.7861L10.0507 15.5441C10.1529 15.6463 10.2741 15.7273 10.4076 15.7826C10.5411 15.838 10.6842 15.8664 10.8287 15.8664C10.9732 15.8664 11.1163 15.838 11.2498 15.7826C11.3833 15.7273 11.5046 15.6463 11.6067 15.5441L17.1927 9.95806C17.2856 9.86515 17.3593 9.75485 17.4096 9.63345C17.4599 9.51206 17.4858 9.38195 17.4858 9.25056C17.4858 9.11916 17.4599 8.98905 17.4096 8.86766C17.3593 8.74627 17.2856 8.63597 17.1927 8.54306C17.0998 8.45015 16.9895 8.37644 16.8681 8.32616C16.7467 8.27588 16.6166 8.25 16.4852 8.25C16.3538 8.25 16.2237 8.27588 16.1023 8.32616C15.9809 8.37644 15.8706 8.45015 15.7777 8.54306Z" fill="white"/>
</g>
</svg>
