<svg width="24" height="25" viewBox="0 0 24 25" fill="none" xmlns="http://www.w3.org/2000/svg">
<g id="Data T">
<path id="Vector" d="M8.75 13.8789C9.34674 13.8789 9.91903 14.116 10.341 14.5379C10.7629 14.9599 11 15.5322 11 16.1289V19.6289C11 20.2256 10.7629 20.7979 10.341 21.2199C9.91903 21.6419 9.34674 21.8789 8.75 21.8789H5.25C4.65326 21.8789 4.08097 21.6419 3.65901 21.2199C3.23705 20.7979 3 20.2256 3 19.6289V16.1289C3 15.5322 3.23705 14.9599 3.65901 14.5379C4.08097 14.116 4.65326 13.8789 5.25 13.8789H8.75ZM18.75 3.87891C19.3467 3.87891 19.919 4.11596 20.341 4.53792C20.7629 4.95987 21 5.53217 21 6.12891V9.62891C21 10.2256 20.7629 10.7979 20.341 11.2199C19.919 11.6419 19.3467 11.8789 18.75 11.8789H15.25C14.6533 11.8789 14.081 11.6419 13.659 11.2199C13.2371 10.7979 13 10.2256 13 9.62891V6.12891C13 5.53217 13.2371 4.95987 13.659 4.53792C14.081 4.11596 14.6533 3.87891 15.25 3.87891H18.75Z" fill="#99C6FF"/>
<path id="Vector_2" d="M8.75 3.87891C9.34674 3.87891 9.91903 4.11596 10.341 4.53792C10.7629 4.95987 11 5.53217 11 6.12891V9.62891C11 10.2256 10.7629 10.7979 10.341 11.2199C9.91903 11.6419 9.34674 11.8789 8.75 11.8789H5.25C4.65326 11.8789 4.08097 11.6419 3.65901 11.2199C3.23705 10.7979 3 10.2256 3 9.62891V6.12891C3 5.53217 3.23705 4.95987 3.65901 4.53792C4.08097 4.11596 4.65326 3.87891 5.25 3.87891H8.75Z" fill="#338DFF"/>
<path id="Vector_3" d="M18.75 13.8789C19.3467 13.8789 19.919 14.116 20.341 14.5379C20.7629 14.9599 21 15.5322 21 16.1289V19.6289C21 20.2256 20.7629 20.7979 20.341 21.2199C19.919 21.6419 19.3467 21.8789 18.75 21.8789H15.25C14.6533 21.8789 14.081 21.6419 13.659 21.2199C13.2371 20.7979 13 20.2256 13 19.6289V16.1289C13 15.5322 13.2371 14.9599 13.659 14.5379C14.081 14.116 14.6533 13.8789 15.25 13.8789H18.75Z" fill="#DEEDFF"/>
</g>
</svg>
