<svg width="24" height="25" viewBox="0 0 24 25" fill="none" xmlns="http://www.w3.org/2000/svg">
<g id="Eyes2">
<g id="Layer 1">
<path id="Vector" d="M15.2044 15.601C14.4269 16.3192 13.4318 16.7544 12.3785 16.8369C11.3252 16.9193 10.2748 16.6442 9.39592 16.0557C8.51701 15.4672 7.86049 14.5993 7.53166 13.5914C7.20284 12.5835 7.22078 11.4939 7.58261 10.4974L3.57529 7.81543C2.59963 8.62571 1.8317 9.65901 1.33591 10.8287C0.888031 12.1381 0.888031 12.1381 1.33591 13.4476C2.27881 16.1611 7.23688 20.0263 11.9985 20.0263C14.3753 19.9687 16.6877 19.2387 18.6695 17.9201L15.2044 15.601Z" fill="#C1C8D2"/>
<path id="Vector_2" d="M20.4113 20.0314C20.0795 20.0342 19.7542 19.9339 19.4765 19.7432L1.70855 7.64178C1.36248 7.37566 1.12655 6.98103 1.04923 6.53897C0.971899 6.09691 1.05905 5.64098 1.29276 5.26484C1.52648 4.8887 1.88903 4.62091 2.30592 4.51648C2.72282 4.41205 3.16241 4.47891 3.5344 4.70332L21.3023 16.8048C21.603 17.0112 21.8327 17.3132 21.9577 17.6662C22.0827 18.0192 22.0963 18.4047 21.9965 18.7659C21.8968 19.1271 21.6889 19.445 21.4036 19.6728C21.1182 19.9006 20.7704 20.0263 20.4113 20.0314Z" fill="#C1C8D2"/>
<path id="Vector_3" d="M22.6615 10.8287C21.5929 7.74445 16.7605 4.25 11.9989 4.25C10.2955 4.2887 8.62156 4.70344 7.09584 5.46477C7.03733 5.50073 6.98899 5.55116 6.95545 5.61124C6.92191 5.67132 6.9043 5.73904 6.9043 5.80791C6.9043 5.87678 6.92191 5.9445 6.95545 6.00458C6.98899 6.06466 7.03733 6.11509 7.09584 6.15104L9.82239 7.97321C9.98714 7.8806 10.1578 7.79892 10.3331 7.72867C10.3653 7.71443 10.3968 7.69863 10.4274 7.68134C10.5556 7.63101 10.6868 7.58886 10.8203 7.55513C10.8952 7.5348 10.9713 7.51899 11.0482 7.5078L11.386 7.4447H11.6453L11.9989 7.40526C13.1954 7.40245 14.3482 7.85646 15.2236 8.67525C16.0991 9.49405 16.6316 10.6164 16.7134 11.8147C16.7134 11.9173 16.7134 12.0198 16.7134 12.1224V12.1776C16.7212 12.3168 16.7212 12.4564 16.7134 12.5957L20.7207 15.2776C20.8905 15.3917 21.0978 15.4349 21.2988 15.3981C21.4997 15.3612 21.6785 15.2473 21.7972 15.0804C22.1688 14.5812 22.4678 14.0314 22.6851 13.4476C23.1094 12.1381 23.1094 12.1381 22.6615 10.8287Z" fill="#C1C8D2"/>
</g>
</g>
</svg>
