<svg width="19" height="19" viewBox="0 0 19 19" fill="none" xmlns="http://www.w3.org/2000/svg">
<g id="flat-color-icons:google">
<g clip-path="url(#clip0_768_21406)">
<g id="Group 2212">
<path id="Vector" d="M18.158 7.48723H17.4331V7.44988H9.33322V11.0498H14.4195C13.6774 13.1454 11.6835 14.6498 9.33322 14.6498C6.35112 14.6498 3.93331 12.2319 3.93331 9.24984C3.93331 6.26775 6.35112 3.84994 9.33322 3.84994C10.7097 3.84994 11.9621 4.36923 12.9156 5.21746L15.4612 2.67186C13.8538 1.17383 11.7038 0.25 9.33322 0.25C4.36305 0.25 0.333374 4.27968 0.333374 9.24984C0.333374 14.22 4.36305 18.2497 9.33322 18.2497C14.3034 18.2497 18.3331 14.22 18.3331 9.24984C18.3331 8.64641 18.271 8.05737 18.158 7.48723Z" fill="#FFC107"/>
<path id="Vector_2" d="M1.37048 5.06087L4.32738 7.22938C5.12747 5.24851 7.06514 3.84994 9.33265 3.84994C10.7092 3.84994 11.9615 4.36923 12.915 5.21746L15.4606 2.67186C13.8533 1.17383 11.7032 0.25 9.33265 0.25C5.87581 0.25 2.87796 2.20162 1.37048 5.06087Z" fill="#FF3D00"/>
<path id="Vector_3" d="M9.3334 18.25C11.6581 18.25 13.7703 17.3603 15.3673 15.9136L12.5819 13.5566C11.648 14.2668 10.5067 14.651 9.3334 14.65C6.99254 14.65 5.00493 13.1574 4.25614 11.0744L1.32129 13.3356C2.81076 16.2502 5.83561 18.25 9.3334 18.25Z" fill="#4CAF50"/>
<path id="Vector_4" d="M18.1581 7.48724H17.4331V7.44989H9.33325V11.0498H14.4195C14.0646 12.0472 13.4252 12.9187 12.5804 13.5567L12.5817 13.5558L15.3672 15.9129C15.1701 16.092 18.3331 13.7498 18.3331 9.24986C18.3331 8.64642 18.271 8.05738 18.1581 7.48724Z" fill="#1976D2"/>
</g>
</g>
</g>
<defs>
<clipPath id="clip0_768_21406">
<rect x="0.333374" y="0.25" width="18" height="18" rx="9" fill="white"/>
</clipPath>
</defs>
</svg>
