<svg width="24" height="25" viewBox="0 0 24 25" fill="none" xmlns="http://www.w3.org/2000/svg">
<g id="Homepage">
<path id="Vector" fill-rule="evenodd" clip-rule="evenodd" d="M10.1214 4.33591C8.4719 4.81444 7.0055 5.77699 5.91353 7.09798C4.82156 8.41897 4.15472 10.0371 4 11.7412H7.90132C8.12873 9.14798 8.88368 6.62802 10.1202 4.33469L10.1214 4.33591ZM7.90132 13.2589H4C4.15439 14.963 4.82095 16.5813 5.91271 17.9025C7.00447 19.2237 8.47073 20.1865 10.1202 20.6653C8.88368 18.372 8.12873 15.852 7.90132 13.2589ZM12.0757 20.9895C10.5976 18.6548 9.69135 16.0067 9.43015 13.2589H15.5686C15.3074 16.0067 14.4012 18.6548 12.923 20.9895C12.6408 21.0035 12.358 21.0035 12.0757 20.9895ZM14.8798 20.6641C16.5291 20.1854 17.9952 19.2227 19.087 17.9018C20.1787 16.5808 20.8454 14.9628 21 13.2589H17.0987C16.8713 15.852 16.1163 18.372 14.8798 20.6653V20.6641ZM17.0987 11.7412H21C20.8456 10.037 20.179 8.41875 19.0873 7.09754C17.9955 5.77634 16.5293 4.81351 14.8798 4.33469C16.1163 6.62802 16.8713 9.14798 17.0987 11.7412ZM12.0757 4.01051C12.3584 3.9965 12.6416 3.9965 12.9243 4.01051C14.402 6.34535 15.3078 8.99347 15.5686 11.7412H9.43137C9.69593 8.97648 10.6042 6.32594 12.0757 4.01051Z" fill="#929EB0"/>
</g>
</svg>
