<svg width="24" height="25" viewBox="0 0 24 25" fill="none" xmlns="http://www.w3.org/2000/svg">
<g id="Youtube">
<path id="Vector" fill-rule="evenodd" clip-rule="evenodd" d="M12 6C10.8921 6 9.6 6.02497 8.34047 6.05885L8.2893 6.06063C7.00744 6.09541 5.97302 6.12305 5.15814 6.25234C4.30884 6.38698 3.60372 6.64467 3.04 7.20018C2.47442 7.75747 2.22791 8.44672 2.11163 9.27151C2 10.0651 2 11.0709 2 12.321V13.6799C2 14.9282 2 15.934 2.11163 16.7285C2.22698 17.5533 2.47442 18.2425 3.04 18.7998C3.60372 19.3562 4.30884 19.613 5.15814 19.7477C5.97302 19.877 7.00744 19.9046 8.2893 19.9394L8.34047 19.9412C9.60093 19.975 10.8921 20 12 20C13.1079 20 14.4 19.975 15.6595 19.9412L15.7107 19.9394C16.9926 19.9046 18.027 19.877 18.8419 19.7477C19.6912 19.613 20.3963 19.3553 20.96 18.7998C21.5256 18.2425 21.773 17.5533 21.8884 16.7285C22 15.9349 22 14.9291 22 13.679V12.3201C22 11.0709 22 10.0651 21.8884 9.27151C21.773 8.44672 21.5256 7.75747 20.96 7.20018C20.3963 6.64378 19.6912 6.38698 18.8419 6.25234C18.027 6.12305 16.9926 6.09541 15.7098 6.06063L15.6595 6.05885C14.44 6.02337 13.2201 6.00375 12 6ZM10.9507 15.3634C10.8446 15.4214 10.7245 15.4518 10.6023 15.4514C10.4801 15.451 10.3602 15.4199 10.2545 15.3611C10.1488 15.3023 10.0611 15.218 10.0001 15.1165C9.93914 15.015 9.90702 14.9 9.90698 14.7829V11.2162C9.90702 11.0991 9.93914 10.9841 10.0001 10.8826C10.0611 10.7811 10.1488 10.6968 10.2545 10.638C10.3602 10.5792 10.4801 10.5481 10.6023 10.5477C10.7245 10.5473 10.8446 10.5777 10.9507 10.6358L14.2065 12.4191C14.3132 12.4776 14.4019 12.5621 14.4636 12.664C14.5253 12.766 14.5577 12.8817 14.5577 12.9996C14.5577 13.1174 14.5253 13.2331 14.4636 13.3351C14.4019 13.437 14.3132 13.5215 14.2065 13.58L10.9507 15.3634Z" fill="#929EB0"/>
</g>
</svg>
